<svg xmlns="http://www.w3.org/2000/svg" xmlns:xlink="http://www.w3.org/1999/xlink" width="260.479" height="88.298"><defs><linearGradient xlink:href="#a" id="k" gradientUnits="userSpaceOnUse" gradientTransform="rotate(-65.001 -3054.253 -6609.844)" x1="-7708.797" y1="-803.36" x2="-7633.153" y2="-714.907"/><linearGradient xlink:href="#b" id="l" gradientUnits="userSpaceOnUse" gradientTransform="rotate(-65.001 -3054.253 -6609.844)" x1="-8268.639" y1="-813.123" x2="-7728.958" y2="-813.123"/><linearGradient xlink:href="#c" id="m" gradientUnits="userSpaceOnUse" gradientTransform="rotate(-65.001 -3054.253 -6609.844)" x1="-8203.492" y1="-758.994" x2="-7881.895" y2="-758.994"/><linearGradient xlink:href="#d" id="n" gradientUnits="userSpaceOnUse" gradientTransform="rotate(-65.001 -3054.253 -6609.844)" x1="-8238.328" y1="-818.152" x2="-7698.647" y2="-818.152"/><linearGradient xlink:href="#e" id="o" gradientUnits="userSpaceOnUse" gradientTransform="rotate(-65.001 -3054.253 -6609.844)" x1="-8198.968" y1="-810.851" x2="-7915.35" y2="-810.851"/><linearGradient xlink:href="#f" id="p" gradientUnits="userSpaceOnUse" gradientTransform="rotate(-65.001 -3054.253 -6609.844)" x1="-8238.328" y1="-762.297" x2="-7698.647" y2="-762.297"/><linearGradient xlink:href="#g" id="q" gradientUnits="userSpaceOnUse" gradientTransform="rotate(-65.001 -3054.253 -6609.844)" x1="-8271.806" y1="-765.071" x2="-7732.125" y2="-765.071"/><linearGradient xlink:href="#h" id="r" gradientUnits="userSpaceOnUse" gradientTransform="rotate(-65.001 -3054.253 -6609.844)" x1="-8238.328" y1="-745.685" x2="-7698.647" y2="-745.685"/><linearGradient xlink:href="#i" id="s" gradientUnits="userSpaceOnUse" gradientTransform="rotate(-65.001 -3054.253 -6609.844)" x1="-8238.328" y1="-747.586" x2="-7698.647" y2="-747.586"/><linearGradient xlink:href="#j" id="t" gradientUnits="userSpaceOnUse" gradientTransform="rotate(-65.001 -3054.253 -6609.844)" x1="-7935.143" y1="-747.967" x2="-7815.856" y2="-747.967"/></defs><g transform="matrix(.16486 0 0 .16486 -6.463 -2.806)"><linearGradient id="a" gradientUnits="userSpaceOnUse" x1="-7708.797" y1="-803.36" x2="-7633.153" y2="-714.907" gradientTransform="rotate(-65.001 -3054.253 -6609.844)"><stop offset="0" stop-color="#f69923"/><stop offset=".312" stop-color="#f79a23"/><stop offset=".838" stop-color="#e97826"/></linearGradient><path d="M267.1 19.6c-8.4 5-22.4 19-39 39.3l15.3 28.9c10.7-15.4 21.7-29.2 32.7-41 .8-.9 1.3-1.4 1.3-1.4-.4.5-.9.9-1.3 1.4-3.6 3.9-14.4 16.5-30.7 41.6 15.7-.8 39.8-4 59.5-7.4 5.9-32.8-5.7-47.8-5.7-47.8s-14.8-23.9-32.1-13.6z" fill="url(#k)"/><path d="M241.1 184.4c.1 0 .2 0 .3-.1l-2.2.2c-.1.1-.3.1-.4.2.8-.1 1.6-.2 2.3-.3zM225.5 236.1c-1.2.3-2.5.5-3.8.7 1.3-.2 2.6-.4 3.8-.7zM119.3 352.2c.2-.4.3-.9.5-1.3 3.4-8.9 6.7-17.5 10-26 3.7-9.4 7.4-18.6 11-27.5 3.8-9.3 7.6-18.4 11.3-27.1 3.9-9.2 7.7-18 11.5-26.5 3.1-6.9 6.1-13.6 9.1-20.1 1-2.2 2-4.3 3-6.4 2-4.2 3.9-8.3 5.8-12.3 1.8-3.7 3.5-7.3 5.2-10.9.6-1.2 1.2-2.4 1.7-3.5l.3-.6-1.9.2-1.5-2.9c-.1.3-.3.6-.4.9-2.7 5.3-5.4 10.7-8 16.2-1.5 3.1-3 6.3-4.6 9.5-4.2 8.8-8.3 17.6-12.3 26.6-4.1 9-8.1 18.1-12 27.1-3.9 8.9-7.6 17.8-11.3 26.7-3.7 8.9-7.3 17.7-10.8 26.5-3.7 9.2-7.3 18.3-10.7 27.3-.8 2-1.6 4.1-2.3 6.1-2.8 7.3-5.5 14.4-8.1 21.5l2.4 4.7 2.1-.2c.1-.2.2-.4.2-.6 3.1-9.5 6.5-18.6 9.8-27.4zM220.7 236.9z" fill="none"/><path d="M215.6 262.2c-2 .4-4 .7-6 1 1-.1 2.1-.3 3.1-.5 1-.1 2-.3 2.9-.5z" fill="#be202e"/><path d="M215.6 262.2c-2 .4-4 .7-6 1 1-.1 2.1-.3 3.1-.5 1-.1 2-.3 2.9-.5z" opacity=".35" fill="#be202e"/><path d="M220.8 236.9c-.1 0-.1 0 0 0 .3 0 .6-.1.9-.1 1.3-.2 2.6-.4 3.8-.7-1.5.3-3.1.5-4.7.8z" fill="#be202e"/><path d="M220.8 236.9c-.1 0-.1 0 0 0 .3 0 .6-.1.9-.1 1.3-.2 2.6-.4 3.8-.7-1.5.3-3.1.5-4.7.8z" opacity=".35" fill="#be202e"/><linearGradient id="b" gradientUnits="userSpaceOnUse" x1="-8268.639" y1="-813.123" x2="-7728.958" y2="-813.123" gradientTransform="rotate(-65.001 -3054.253 -6609.844)"><stop offset=".323" stop-color="#9e2064"/><stop offset=".63" stop-color="#c92037"/><stop offset=".751" stop-color="#cd2335"/><stop offset="1" stop-color="#e97826"/></linearGradient><path d="M198.2 162.4c4.7-8.7 9.4-17.2 14.1-25.5 4.9-8.6 9.9-16.9 15-25 .3-.5.6-1 .9-1.4 5-7.9 10-15.5 15.1-22.8L228 58.9c-1.1 1.4-2.3 2.8-3.5 4.3-4.4 5.5-9 11.4-13.7 17.7-5.3 7.1-10.7 14.6-16.3 22.5-5.1 7.3-10.3 15-15.5 22.9-4.4 6.8-8.8 13.7-13.2 20.8-.2.3-.3.5-.5.8l19.9 39.3c4.4-8.3 8.7-16.6 13-24.8z" fill="url(#l)"/><linearGradient id="c" gradientUnits="userSpaceOnUse" x1="-8203.492" y1="-758.994" x2="-7881.895" y2="-758.994" gradientTransform="rotate(-65.001 -3054.253 -6609.844)"><stop offset="0" stop-color="#282662"/><stop offset=".095" stop-color="#662e8d"/><stop offset=".788" stop-color="#9f2064"/><stop offset=".949" stop-color="#cd2032"/></linearGradient><path d="M107.5 384.1c-2.6 7.2-5.3 14.6-7.9 22.2 0 .1-.1.2-.1.3-.4 1.1-.8 2.1-1.1 3.2-1.8 5.1-3.3 9.7-6.9 20.1 5.9 2.7 10.6 9.7 15 17.7-.5-8.3-3.9-16.1-10.4-22.1 28.9 1.3 53.9-6 66.7-27.2 1.1-1.9 2.2-3.9 3.2-6-5.9 7.4-13.1 10.6-26.8 9.8h-.1.1c20.1-9 30.2-17.7 39.1-32 2.1-3.4 4.2-7.1 6.3-11.2-17.6 18.1-38 23.2-59.5 19.3L109 380c-.5 1.4-1 2.7-1.5 4.1z" fill="url(#m)"/><linearGradient id="d" gradientUnits="userSpaceOnUse" x1="-8238.328" y1="-818.152" x2="-7698.647" y2="-818.152" gradientTransform="rotate(-65.001 -3054.253 -6609.844)"><stop offset=".323" stop-color="#9e2064"/><stop offset=".63" stop-color="#c92037"/><stop offset=".751" stop-color="#cd2335"/><stop offset="1" stop-color="#e97826"/></linearGradient><path d="M115 348c3.5-9 7.1-18.1 10.7-27.3 3.5-8.8 7.1-17.6 10.8-26.5 3.7-8.9 7.5-17.8 11.3-26.7 3.9-9.1 7.9-18.1 12-27.1 4-8.9 8.2-17.8 12.3-26.6 1.5-3.2 3-6.3 4.6-9.5 2.6-5.4 5.3-10.8 8-16.2.1-.3.3-.6.4-.9L165.4 148c-.3.5-.6 1.1-1 1.6-4.6 7.6-9.3 15.3-13.8 23.2-4.6 8-9.1 16.1-13.5 24.4-3.7 7-7.3 14-10.9 21.1-.7 1.4-1.4 2.9-2.1 4.3-4.3 8.9-8.3 17.6-11.8 25.9-4 9.4-7.5 18.4-10.6 26.9-2 5.6-3.9 11-5.6 16.2-1.4 4.4-2.7 8.9-4 13.3-3 10.4-5.5 20.8-7.6 31.2l20 39.5c2.6-7.1 5.4-14.2 8.1-21.5.8-2 1.6-4 2.4-6.1z" fill="url(#n)"/><linearGradient id="e" gradientUnits="userSpaceOnUse" x1="-8198.968" y1="-810.851" x2="-7915.35" y2="-810.851" gradientTransform="rotate(-65.001 -3054.253 -6609.844)"><stop offset="0" stop-color="#282662"/><stop offset=".095" stop-color="#662e8d"/><stop offset=".788" stop-color="#9f2064"/><stop offset=".949" stop-color="#cd2032"/></linearGradient><path d="M84.2 337.5c-2.5 12.6-4.3 25.2-5.2 37.8 0 .4-.1.9-.1 1.3-6.2-10-23-19.8-22.9-19.7 12 17.4 21.1 34.6 22.4 51.5-6.4 1.3-15.2-.6-25.3-4.3 10.6 9.7 18.5 12.4 21.6 13.1-9.7.6-19.8 7.3-30 15 14.9-6.1 27-8.5 35.6-6.5-13.7 38.7-27.4 81.5-41.1 126.9 4.2-1.2 6.7-4.1 8.1-7.9 2.4-8.2 18.7-62.2 44.1-133.1.7-2 1.5-4 2.2-6.1.2-.6.4-1.1.6-1.7 2.7-7.4 5.5-15 8.4-22.8.7-1.8 1.3-3.5 2-5.3v-.1l-20-39.5c-.2.5-.3.9-.4 1.4z" fill="url(#o)"/><linearGradient id="f" gradientUnits="userSpaceOnUse" x1="-8238.328" y1="-762.297" x2="-7698.647" y2="-762.297" gradientTransform="rotate(-65.001 -3054.253 -6609.844)"><stop offset=".323" stop-color="#9e2064"/><stop offset=".63" stop-color="#c92037"/><stop offset=".751" stop-color="#cd2335"/><stop offset="1" stop-color="#e97826"/></linearGradient><path d="M188.4 190.6c-.6 1.2-1.1 2.3-1.7 3.5-1.7 3.6-3.5 7.2-5.2 10.9-1.9 4-3.8 8.1-5.8 12.3-1 2.1-2 4.2-3 6.4-3 6.5-6 13.2-9.1 20.1-3.8 8.5-7.6 17.3-11.5 26.5-3.7 8.7-7.5 17.8-11.3 27.1-3.6 8.9-7.3 18-11 27.5-3.3 8.4-6.6 17.1-10 26-.2.4-.3.9-.5 1.3-3.3 8.8-6.7 17.9-10.1 27.2-.1.2-.2.4-.2.6l16.1-1.8c-.3-.1-.6-.1-1-.2 19.3-2.4 44.9-16.8 61.4-34.6 7.6-8.2 14.5-17.8 20.9-29.1 4.8-8.4 9.2-17.7 13.5-28.1 3.7-9 7.3-18.8 10.7-29.4-4.4 2.3-9.5 4-15.1 5.2l-3 .6c-1 .2-2 .3-3.1.5 18-6.9 29.3-20.2 37.5-36.6-4.7 3.2-12.4 7.4-21.6 9.5-1.2.3-2.5.5-3.8.7-.3 0-.6.1-1 .1 6.2-2.6 11.5-5.5 16.1-9 1-.7 1.9-1.5 2.8-2.3 1.4-1.2 2.7-2.5 4-3.8.8-.9 1.6-1.7 2.4-2.6 1.8-2.1 3.5-4.4 5-6.9.5-.8 1-1.5 1.4-2.3.6-1.2 1.2-2.3 1.7-3.4 2.5-5 4.5-9.5 6.1-13.5.8-2 1.5-3.8 2.1-5.5.2-.7.5-1.3.7-2 .6-1.9 1.2-3.6 1.6-5.1.6-2.2 1-4 1.2-5.3-.6.5-1.3 1-2.1 1.4-5.4 3.2-14.7 6.2-22.2 7.6l14.8-1.6-14.8 1.6c-.1 0-.2 0-.3.1-.7.1-1.5.2-2.3.4.1-.1.3-.1.4-.2l-50.6 5.5c.1.4 0 .6-.1.7z" fill="url(#p)"/><linearGradient id="g" gradientUnits="userSpaceOnUse" x1="-8271.806" y1="-765.071" x2="-7732.125" y2="-765.071" gradientTransform="rotate(-65.001 -3054.253 -6609.844)"><stop offset=".323" stop-color="#9e2064"/><stop offset=".63" stop-color="#c92037"/><stop offset=".751" stop-color="#cd2335"/><stop offset="1" stop-color="#e97826"/></linearGradient><path d="M245.4 88.4c-4.5 6.9-9.4 14.8-14.7 23.6-.3.5-.6.9-.8 1.4-4.6 7.7-9.4 16.1-14.5 25.4-4.4 8-9 16.5-13.8 25.8-4.2 8-8.4 16.5-12.9 25.5l50.6-5.5c14.7-6.8 21.3-12.9 27.7-21.8 1.7-2.4 3.4-5 5.1-7.7 5.2-8.1 10.3-17 14.8-25.9 4.4-8.6 8.3-17.1 11.2-24.7 1.9-4.9 3.4-9.4 4.5-13.4.9-3.5 1.6-6.8 2.2-10-19.6 3.3-43.7 6.5-59.4 7.3z" fill="url(#q)"/><path d="M212.7 262.8c-1 .2-2 .3-3.1.5 1-.2 2-.4 3.1-.5z" fill="#be202e"/><path d="M212.7 262.8c-1 .2-2 .3-3.1.5 1-.2 2-.4 3.1-.5z" opacity=".35" fill="#be202e"/><linearGradient id="h" gradientUnits="userSpaceOnUse" x1="-8238.328" y1="-745.685" x2="-7698.647" y2="-745.685" gradientTransform="rotate(-65.001 -3054.253 -6609.844)"><stop offset=".323" stop-color="#9e2064"/><stop offset=".63" stop-color="#c92037"/><stop offset=".751" stop-color="#cd2335"/><stop offset="1" stop-color="#e97826"/></linearGradient><path d="M212.7 262.8c-1 .2-2 .3-3.1.5 1-.2 2-.4 3.1-.5z" fill="url(#r)"/><path d="M220.7 236.9c.3 0 .6-.1 1-.1-.3 0-.6.1-1 .1z" fill="#be202e"/><path d="M220.7 236.9c.3 0 .6-.1 1-.1-.3 0-.6.1-1 .1z" opacity=".35" fill="#be202e"/><linearGradient id="i" gradientUnits="userSpaceOnUse" x1="-8238.328" y1="-747.586" x2="-7698.647" y2="-747.586" gradientTransform="rotate(-65.001 -3054.253 -6609.844)"><stop offset=".323" stop-color="#9e2064"/><stop offset=".63" stop-color="#c92037"/><stop offset=".751" stop-color="#cd2335"/><stop offset="1" stop-color="#e97826"/></linearGradient><path d="M220.7 236.9c.3 0 .6-.1 1-.1-.3 0-.6.1-1 .1z" fill="url(#s)"/><path d="M220.8 236.9z" fill="#be202e"/><path d="M220.8 236.9z" opacity=".35" fill="#be202e"/><linearGradient id="j" gradientUnits="userSpaceOnUse" x1="-7935.143" y1="-747.967" x2="-7815.856" y2="-747.967" gradientTransform="rotate(-65.001 -3054.253 -6609.844)"><stop offset=".323" stop-color="#9e2064"/><stop offset=".63" stop-color="#c92037"/><stop offset=".751" stop-color="#cd2335"/><stop offset="1" stop-color="#e97826"/></linearGradient><path d="M220.8 236.9z" fill="url(#t)"/></g><path d="M33.76 27.476v1.206h-.34v-1.206h-.427v-.288h1.18v.288h-.414zM35.755 27.74l-.402.816h-.2l-.402-.816v.942h-.327v-1.494h.452l.39.816.389-.816h.452v1.494h-.327v-.942z" fill="#b0afb0"/><path style="line-height:125%;-inkscape-font-specification:Droid Sans Bold" d="M47.456 85.945c-1.393 0-2.615-.075-3.665-.225-1.05-.129-1.94-.29-2.668-.482v-8.294c.793.172 1.629.322 2.507.45.858.13 1.8.193 2.83.193.985 0 1.896-.107 2.731-.321.857-.214 1.597-.59 2.218-1.125.643-.514 1.136-1.21 1.479-2.09.364-.878.546-1.982.546-3.31V25.129H63.4v45.29c0 2.7-.397 5.025-1.19 6.975-.771 1.95-1.864 3.558-3.278 4.822-1.393 1.286-3.065 2.229-5.015 2.829-1.95.6-4.103.9-6.46.9" font-size="160.722" font-weight="700" letter-spacing="0" word-spacing="0" fill="#d22128" stroke="#d22128" stroke-width="1.229" stroke-linejoin="round" font-family="Droid Sans"/><path style="line-height:125%;-inkscape-font-specification:Droid Sans Bold" d="M68.738 25.134V72.12h8.909V50.26c0-.6-.017-1.273-.038-2.023a44.5 44.5 0 0 0-.064-2.342 98.842 98.842 0 0 0-.09-2.47 86.526 86.526 0 0 0-.102-2.445c-.086-1.843-.192-3.75-.32-5.722h.294l10.317 36.863h9.151l11.123-36.799h.256c-.064 1.95-.132 3.82-.217 5.62-.022.771-.06 1.566-.103 2.38l-.064 2.407c-.021.792-.042 1.545-.064 2.252v24.14h9.293V25.134H103.45L92.648 61.063h-.192l-10.15-35.929H68.738zm93.297 3.405l-2.829 7.577-5.388 3.29v4.147h4.684V60.87c0 2.314.275 4.242.832 5.785.579 1.521 1.37 2.74 2.355 3.66a8.36 8.36 0 0 0 3.508 1.908c1.35.364 2.8.537 4.364.537 1.607 0 3.092-.152 4.442-.473 1.371-.3 2.509-.693 3.43-1.165v-7.296c-.9.322-1.784.592-2.662.807a11.29 11.29 0 0 1-2.74.32c-1.114 0-2.014-.334-2.7-.999-.686-.664-1.024-1.692-1.024-3.084V43.553h8.742v-7.36h-8.742v-7.654h-6.272zm-25.164 6.975c-2.443 0-4.667.398-6.681 1.19a13.645 13.645 0 0 0-5.146 3.56c-1.414 1.563-2.522 3.53-3.315 5.887-.793 2.357-1.19 5.106-1.19 8.256 0 3.107.435 5.826 1.292 8.14.879 2.293 2.097 4.2 3.661 5.722 1.564 1.5 3.43 2.616 5.593 3.366 2.165.75 4.533 1.126 7.104 1.126a38.5 38.5 0 0 0 3.661-.153 22.34 22.34 0 0 0 3.123-.448 23.97 23.97 0 0 0 2.726-.78 21.524 21.524 0 0 0 2.612-1.153v-7.59a38.47 38.47 0 0 1-2.765 1.254c-.9.343-1.818.635-2.74.87-.92.236-1.868.422-2.854.551-.964.107-1.991.154-3.084.154-1.308 0-2.479-.195-3.507-.602a7.545 7.545 0 0 1-2.612-1.74c-.707-.772-1.256-1.71-1.664-2.804-.385-1.114-.597-2.353-.64-3.725h21.914v-4.761c0-2.614-.36-4.923-1.088-6.937-.708-2.036-1.735-3.753-3.085-5.146-1.329-1.393-2.961-2.441-4.89-3.149-1.907-.728-4.046-1.088-6.425-1.088zm59.02 0c-2.444 0-4.668.398-6.682 1.19a13.645 13.645 0 0 0-5.146 3.56c-1.414 1.563-2.522 3.53-3.315 5.887-.793 2.357-1.19 5.106-1.19 8.256 0 3.107.435 5.826 1.292 8.14.88 2.293 2.097 4.2 3.661 5.722 1.565 1.5 3.43 2.616 5.594 3.366s4.532 1.126 7.103 1.126a38.5 38.5 0 0 0 3.661-.153 22.34 22.34 0 0 0 3.123-.448 23.97 23.97 0 0 0 2.727-.78 21.524 21.524 0 0 0 2.61-1.153v-7.59a38.47 38.47 0 0 1-2.764 1.254c-.9.343-1.818.635-2.74.87-.92.236-1.868.422-2.853.551-.965.107-1.992.154-3.085.154-1.307 0-2.479-.195-3.507-.602a7.493 7.493 0 0 1-2.599-1.74c-.707-.772-1.27-1.71-1.676-2.804-.386-1.114-.597-2.353-.64-3.725h21.913v-4.761c0-2.614-.36-4.923-1.088-6.937-.708-2.036-1.735-3.753-3.085-5.146-1.329-1.393-2.96-2.441-4.89-3.149-1.907-.728-4.046-1.088-6.425-1.088zm36.85 0c-1.2 0-2.27.148-3.213.448a8.52 8.52 0 0 0-2.51 1.216c-.728.515-1.383 1.158-1.983 1.908-.6.75-1.163 1.574-1.677 2.495h-.486l-1.447-5.388h-7.423V72.12h9.804v-18.29c0-1.693.207-3.118.614-4.275.429-1.179 1.017-2.122 1.767-2.829a6.857 6.857 0 0 1 2.739-1.574c1.071-.322 2.23-.487 3.494-.487.215 0 .485.017.807.039.321 0 .638.02.96.064.342.021.672.06.972.102.3.043.533.085.704.128v-9.203c-.128-.043-.319-.068-.576-.09a7.518 7.518 0 0 0-.806-.102 5.882 5.882 0 0 0-.896-.064c-.3-.021-.588-.026-.845-.026zm-95.806 6.976c1.029 0 1.93.19 2.7.576a5.387 5.387 0 0 1 1.933 1.6c.515.665.895 1.46 1.152 2.38.257.922.401 1.929.423 3.022h-12.505c.17-2.615.822-4.526 1.958-5.747 1.157-1.222 2.603-1.83 4.339-1.83zm59.02 0c1.028 0 1.928.19 2.7.576a5.387 5.387 0 0 1 1.933 1.6c.514.665.894 1.46 1.152 2.38.257.922.4 1.929.422 3.022h-12.505c.171-2.615.822-4.526 1.958-5.747 1.157-1.222 2.603-1.83 4.34-1.83z" font-size="160.722" font-weight="700" letter-spacing="0" word-spacing="0" stroke="#000" stroke-width="1.229" stroke-linejoin="round" font-family="Droid Sans"/><g style="line-height:125%;-inkscape-font-specification:Sans Bold" font-size="35.265" font-weight="700" letter-spacing="0" word-spacing="0" fill="#4d4d4d" font-family="Droid Sans"><path d="M245.718 35.425h-2.18v-8.492h-2.588v-1.82h7.349v1.82h-2.581v8.492M254.033 35.425l-2.264-8.09h-.064a67.42 67.42 0 0 1 .113 2.335c.01.178.014.35.014.515.005.164.007.312.007.444v4.796h-1.953V25.114h2.976l2.229 7.885h.042l2.37-7.885h2.976v10.31h-2.038v-4.88-.416a151.313 151.313 0 0 0 .028-1.022c.01-.18.016-.353.021-.522.019-.395.035-.807.05-1.235h-.057l-2.44 8.076h-2.01" style="-inkscape-font-specification:Droid Sans Bold"/></g><text style="line-height:125%;-inkscape-font-specification:Sans Bold" x="175.767" y="103.829" font-size="48" font-weight="700" letter-spacing="0" word-spacing="0" font-family="Arial" transform="translate(-433.588 -211.853)"/><g fill="#d22128"><path d="M53.3 17.902l7.038-16.818h1.356l7.039 16.818h-1.77l-2.185-5.254h-7.567l-2.155 5.254H53.3zm7.723-14.877l-3.455 8.31h6.825l-3.37-8.31zM70.531 17.902V1.084H77.5c2.883 0 4.968 2.67 4.968 5.282 0 2.741-1.942 5.325-4.826 5.325h-5.468v6.21h-1.642zm1.642-7.681h5.383c1.984 0 3.269-1.828 3.269-3.855 0-2.113-1.556-3.812-3.412-3.812h-5.24v7.667zM81.553 17.902l7.038-16.818h1.357l7.038 16.818h-1.799l-2.184-5.254h-7.552l-2.156 5.254h-1.742zm7.724-14.877l-3.455 8.31h6.824l-3.37-8.31zM104.924.984c2.984 0 5.168 1.513 6.21 3.669l-1.327.8c-1.071-2.228-3.156-2.984-4.969-2.984-4.026 0-6.224 3.597-6.224 6.98 0 3.713 2.727 7.082 6.296 7.082 1.899 0 4.126-.942 5.182-3.127l1.37.714c-1.084 2.513-4.068 3.912-6.652 3.912-4.612 0-7.867-4.411-7.867-8.666 0-4.04 2.913-8.38 7.981-8.38zM127.039 1.084v16.818h-1.656v-7.867h-9.966v7.867h-1.627V1.084h1.627v7.48h9.966v-7.48h1.656zM142.129 16.431v1.47h-11.293V1.085h11.079v1.47h-9.451v6.068h8.237v1.399h-8.237v6.41h9.665z"/></g></svg>